<svg width="178" height="34" viewBox="0 0 178 34" fill="none" xmlns="http://www.w3.org/2000/svg">
<rect width="34" height="34" rx="3" fill="#623CEA"/>
<rect x="17.8952" y="11.5192" width="5.55187" height="21.9214" transform="rotate(45 17.8952 11.5192)" fill="url(#paint0_linear_1_26)"/>
<rect x="17.8952" y="1.91577" width="5.55187" height="21.9214" transform="rotate(45 17.8952 1.91577)" fill="url(#paint1_linear_1_26)"/>
<rect x="27.2901" y="11.7281" width="5.55187" height="21.9214" transform="rotate(45 27.2901 11.7281)" fill="url(#paint2_linear_1_26)"/>
<path d="M44.476 23V9.644H46.726V23H44.476ZM49.6791 23V13.388H51.9291V23H49.6791ZM50.8131 11.804C50.3931 11.804 50.0451 11.672 49.7691 11.408C49.5051 11.144 49.3731 10.826 49.3731 10.454C49.3731 10.07 49.5051 9.752 49.7691 9.5C50.0451 9.236 50.3931 9.104 50.8131 9.104C51.2331 9.104 51.5751 9.23 51.8391 9.482C52.1151 9.722 52.2531 10.028 52.2531 10.4C52.2531 10.796 52.1211 11.132 51.8571 11.408C51.5931 11.672 51.2451 11.804 50.8131 11.804ZM57.8523 23.126C57.0483 23.126 56.2743 23.024 55.5303 22.82C54.7983 22.604 54.2163 22.346 53.7843 22.046L54.6483 20.336C55.0803 20.612 55.5963 20.84 56.1963 21.02C56.7963 21.2 57.3963 21.29 57.9963 21.29C58.7043 21.29 59.2143 21.194 59.5263 21.002C59.8503 20.81 60.0123 20.552 60.0123 20.228C60.0123 19.964 59.9043 19.766 59.6883 19.634C59.4723 19.49 59.1903 19.382 58.8423 19.31C58.4943 19.238 58.1043 19.172 57.6723 19.112C57.2523 19.052 56.8263 18.974 56.3943 18.878C55.9743 18.77 55.5903 18.62 55.2423 18.428C54.8943 18.224 54.6123 17.954 54.3963 17.618C54.1803 17.282 54.0723 16.838 54.0723 16.286C54.0723 15.674 54.2463 15.146 54.5942 14.702C54.9423 14.246 55.4283 13.898 56.0522 13.658C56.6883 13.406 57.4383 13.28 58.3023 13.28C58.9503 13.28 59.6043 13.352 60.2643 13.496C60.9243 13.64 61.4703 13.844 61.9023 14.108L61.0383 15.818C60.5823 15.542 60.1203 15.356 59.6523 15.26C59.1963 15.152 58.7403 15.098 58.2843 15.098C57.6003 15.098 57.0903 15.2 56.7543 15.404C56.4303 15.608 56.2683 15.866 56.2683 16.178C56.2683 16.466 56.3763 16.682 56.5923 16.826C56.8083 16.97 57.0903 17.084 57.4383 17.168C57.7863 17.252 58.1703 17.324 58.5903 17.384C59.0223 17.432 59.4483 17.51 59.8683 17.618C60.2883 17.726 60.6723 17.876 61.0203 18.068C61.3803 18.248 61.6683 18.506 61.8843 18.842C62.1003 19.178 62.2083 19.616 62.2083 20.156C62.2083 20.756 62.0283 21.278 61.6683 21.722C61.3203 22.166 60.8223 22.514 60.1743 22.766C59.5263 23.006 58.7523 23.126 57.8523 23.126ZM67.7639 23.126C66.7079 23.126 65.8919 22.856 65.3159 22.316C64.7399 21.764 64.4519 20.954 64.4519 19.886V11.264H66.7019V19.832C66.7019 20.288 66.8159 20.642 67.0439 20.894C67.2839 21.146 67.6139 21.272 68.0339 21.272C68.5379 21.272 68.9579 21.14 69.2939 20.876L69.9239 22.478C69.6599 22.694 69.3359 22.856 68.9519 22.964C68.5679 23.072 68.1719 23.126 67.7639 23.126ZM62.8679 15.26V13.46H69.2759V15.26H62.8679ZM81.1594 23.126C80.1514 23.126 79.2514 22.916 78.4594 22.496C77.6794 22.064 77.0674 21.476 76.6234 20.732C76.1794 19.988 75.9574 19.142 75.9574 18.194C75.9574 17.234 76.1794 16.388 76.6234 15.656C77.0674 14.912 77.6794 14.33 78.4594 13.91C79.2514 13.49 80.1514 13.28 81.1594 13.28C82.0954 13.28 82.9174 13.472 83.6254 13.856C84.3454 14.228 84.8914 14.78 85.2634 15.512L83.5354 16.52C83.2474 16.064 82.8934 15.728 82.4734 15.512C82.0654 15.296 81.6214 15.188 81.1414 15.188C80.5894 15.188 80.0914 15.308 79.6474 15.548C79.2034 15.788 78.8554 16.136 78.6034 16.592C78.3514 17.036 78.2254 17.57 78.2254 18.194C78.2254 18.818 78.3514 19.358 78.6034 19.814C78.8554 20.258 79.2034 20.6 79.6474 20.84C80.0914 21.08 80.5894 21.2 81.1414 21.2C81.6214 21.2 82.0654 21.092 82.4734 20.876C82.8934 20.66 83.2474 20.324 83.5354 19.868L85.2634 20.876C84.8914 21.596 84.3454 22.154 83.6254 22.55C82.9174 22.934 82.0954 23.126 81.1594 23.126ZM91.2764 23.126C90.4604 23.126 89.7404 22.976 89.1164 22.676C88.4924 22.364 88.0064 21.896 87.6584 21.272C87.3104 20.636 87.1364 19.838 87.1364 18.878V13.388H89.3864V18.572C89.3864 19.436 89.5784 20.084 89.9624 20.516C90.3584 20.936 90.9164 21.146 91.6364 21.146C92.1644 21.146 92.6204 21.038 93.0044 20.822C93.4004 20.606 93.7064 20.282 93.9224 19.85C94.1504 19.418 94.2644 18.884 94.2644 18.248V13.388H96.5144V23H94.3724V20.408L94.7504 21.2C94.4264 21.824 93.9524 22.304 93.3284 22.64C92.7044 22.964 92.0204 23.126 91.2764 23.126ZM102.43 23.126C101.626 23.126 100.852 23.024 100.108 22.82C99.3764 22.604 98.7944 22.346 98.3624 22.046L99.2264 20.336C99.6584 20.612 100.174 20.84 100.774 21.02C101.374 21.2 101.974 21.29 102.574 21.29C103.282 21.29 103.792 21.194 104.104 21.002C104.428 20.81 104.59 20.552 104.59 20.228C104.59 19.964 104.482 19.766 104.266 19.634C104.05 19.49 103.768 19.382 103.42 19.31C103.072 19.238 102.682 19.172 102.25 19.112C101.83 19.052 101.404 18.974 100.972 18.878C100.552 18.77 100.168 18.62 99.8204 18.428C99.4724 18.224 99.1904 17.954 98.9744 17.618C98.7584 17.282 98.6504 16.838 98.6504 16.286C98.6504 15.674 98.8244 15.146 99.1724 14.702C99.5204 14.246 100.006 13.898 100.63 13.658C101.266 13.406 102.016 13.28 102.88 13.28C103.528 13.28 104.182 13.352 104.842 13.496C105.502 13.64 106.048 13.844 106.48 14.108L105.616 15.818C105.16 15.542 104.698 15.356 104.23 15.26C103.774 15.152 103.318 15.098 102.862 15.098C102.178 15.098 101.668 15.2 101.332 15.404C101.008 15.608 100.846 15.866 100.846 16.178C100.846 16.466 100.954 16.682 101.17 16.826C101.386 16.97 101.668 17.084 102.016 17.168C102.364 17.252 102.748 17.324 103.168 17.384C103.6 17.432 104.026 17.51 104.446 17.618C104.866 17.726 105.25 17.876 105.598 18.068C105.958 18.248 106.246 18.506 106.462 18.842C106.678 19.178 106.786 19.616 106.786 20.156C106.786 20.756 106.606 21.278 106.246 21.722C105.898 22.166 105.4 22.514 104.752 22.766C104.104 23.006 103.33 23.126 102.43 23.126ZM112.342 23.126C111.286 23.126 110.47 22.856 109.894 22.316C109.318 21.764 109.03 20.954 109.03 19.886V11.264H111.28V19.832C111.28 20.288 111.394 20.642 111.622 20.894C111.862 21.146 112.192 21.272 112.612 21.272C113.116 21.272 113.536 21.14 113.872 20.876L114.502 22.478C114.238 22.694 113.914 22.856 113.53 22.964C113.146 23.072 112.75 23.126 112.342 23.126ZM107.446 15.26V13.46H113.854V15.26H107.446ZM120.357 23.126C119.373 23.126 118.497 22.916 117.729 22.496C116.961 22.064 116.355 21.476 115.911 20.732C115.467 19.988 115.245 19.142 115.245 18.194C115.245 17.234 115.467 16.388 115.911 15.656C116.355 14.912 116.961 14.33 117.729 13.91C118.497 13.49 119.373 13.28 120.357 13.28C121.353 13.28 122.235 13.49 123.003 13.91C123.783 14.33 124.389 14.906 124.821 15.638C125.265 16.37 125.487 17.222 125.487 18.194C125.487 19.142 125.265 19.988 124.821 20.732C124.389 21.476 123.783 22.064 123.003 22.496C122.235 22.916 121.353 23.126 120.357 23.126ZM120.357 21.2C120.909 21.2 121.401 21.08 121.833 20.84C122.265 20.6 122.601 20.252 122.841 19.796C123.093 19.34 123.219 18.806 123.219 18.194C123.219 17.57 123.093 17.036 122.841 16.592C122.601 16.136 122.265 15.788 121.833 15.548C121.401 15.308 120.915 15.188 120.375 15.188C119.823 15.188 119.331 15.308 118.899 15.548C118.479 15.788 118.143 16.136 117.891 16.592C117.639 17.036 117.513 17.57 117.513 18.194C117.513 18.806 117.639 19.34 117.891 19.796C118.143 20.252 118.479 20.6 118.899 20.84C119.331 21.08 119.817 21.2 120.357 21.2ZM139.77 13.28C140.538 13.28 141.216 13.43 141.804 13.73C142.404 14.03 142.872 14.492 143.208 15.116C143.544 15.728 143.712 16.52 143.712 17.492V23H141.462V17.78C141.462 16.928 141.276 16.292 140.904 15.872C140.532 15.452 139.998 15.242 139.302 15.242C138.81 15.242 138.372 15.35 137.988 15.566C137.616 15.782 137.322 16.1 137.106 16.52C136.902 16.94 136.8 17.474 136.8 18.122V23H134.55V17.78C134.55 16.928 134.364 16.292 133.992 15.872C133.62 15.452 133.086 15.242 132.39 15.242C131.898 15.242 131.46 15.35 131.076 15.566C130.704 15.782 130.41 16.1 130.194 16.52C129.99 16.94 129.888 17.474 129.888 18.122V23H127.638V13.388H129.78V15.944L129.402 15.188C129.726 14.564 130.194 14.09 130.806 13.766C131.43 13.442 132.138 13.28 132.93 13.28C133.83 13.28 134.61 13.502 135.27 13.946C135.942 14.39 136.386 15.062 136.602 15.962L135.72 15.656C136.032 14.936 136.548 14.36 137.268 13.928C137.988 13.496 138.822 13.28 139.77 13.28ZM151.123 23.126C150.055 23.126 149.119 22.916 148.315 22.496C147.523 22.064 146.905 21.476 146.461 20.732C146.029 19.988 145.813 19.142 145.813 18.194C145.813 17.234 146.023 16.388 146.443 15.656C146.875 14.912 147.463 14.33 148.207 13.91C148.963 13.49 149.821 13.28 150.781 13.28C151.717 13.28 152.551 13.484 153.283 13.892C154.015 14.3 154.591 14.876 155.011 15.62C155.431 16.364 155.641 17.24 155.641 18.248C155.641 18.344 155.635 18.452 155.623 18.572C155.623 18.692 155.617 18.806 155.605 18.914H147.595V17.42H154.417L153.535 17.888C153.547 17.336 153.433 16.85 153.193 16.43C152.953 16.01 152.623 15.68 152.203 15.44C151.795 15.2 151.321 15.08 150.781 15.08C150.229 15.08 149.743 15.2 149.323 15.44C148.915 15.68 148.591 16.016 148.351 16.448C148.123 16.868 148.009 17.366 148.009 17.942V18.302C148.009 18.878 148.141 19.388 148.405 19.832C148.669 20.276 149.041 20.618 149.521 20.858C150.001 21.098 150.553 21.218 151.177 21.218C151.717 21.218 152.203 21.134 152.635 20.966C153.067 20.798 153.451 20.534 153.787 20.174L154.993 21.56C154.561 22.064 154.015 22.454 153.355 22.73C152.707 22.994 151.963 23.126 151.123 23.126ZM157.802 23V13.388H159.944V16.034L159.692 15.26C159.98 14.612 160.43 14.12 161.042 13.784C161.666 13.448 162.44 13.28 163.364 13.28V15.422C163.268 15.398 163.178 15.386 163.094 15.386C163.01 15.374 162.926 15.368 162.842 15.368C161.99 15.368 161.312 15.62 160.808 16.124C160.304 16.616 160.052 17.354 160.052 18.338V23H157.802ZM168.331 23.126C167.527 23.126 166.753 23.024 166.009 22.82C165.277 22.604 164.695 22.346 164.263 22.046L165.127 20.336C165.559 20.612 166.075 20.84 166.675 21.02C167.275 21.2 167.875 21.29 168.475 21.29C169.183 21.29 169.693 21.194 170.005 21.002C170.329 20.81 170.491 20.552 170.491 20.228C170.491 19.964 170.383 19.766 170.167 19.634C169.951 19.49 169.669 19.382 169.321 19.31C168.973 19.238 168.583 19.172 168.151 19.112C167.731 19.052 167.305 18.974 166.873 18.878C166.453 18.77 166.069 18.62 165.721 18.428C165.373 18.224 165.091 17.954 164.875 17.618C164.659 17.282 164.551 16.838 164.551 16.286C164.551 15.674 164.725 15.146 165.073 14.702C165.421 14.246 165.907 13.898 166.531 13.658C167.167 13.406 167.917 13.28 168.781 13.28C169.429 13.28 170.083 13.352 170.743 13.496C171.403 13.64 171.949 13.844 172.381 14.108L171.517 15.818C171.061 15.542 170.599 15.356 170.131 15.26C169.675 15.152 169.219 15.098 168.763 15.098C168.079 15.098 167.569 15.2 167.233 15.404C166.909 15.608 166.747 15.866 166.747 16.178C166.747 16.466 166.855 16.682 167.071 16.826C167.287 16.97 167.569 17.084 167.917 17.168C168.265 17.252 168.649 17.324 169.069 17.384C169.501 17.432 169.927 17.51 170.347 17.618C170.767 17.726 171.151 17.876 171.499 18.068C171.859 18.248 172.147 18.506 172.363 18.842C172.579 19.178 172.687 19.616 172.687 20.156C172.687 20.756 172.507 21.278 172.147 21.722C171.799 22.166 171.301 22.514 170.653 22.766C170.005 23.006 169.231 23.126 168.331 23.126Z" fill="#623CEA"/>
<defs>
<linearGradient id="paint0_linear_1_26" x1="20.6711" y1="11.5192" x2="20.6711" y2="33.4406" gradientUnits="userSpaceOnUse">
<stop offset="0.317999" stop-color="#F5F5F5"/>
<stop offset="1" stop-color="#F5F5F5" stop-opacity="0"/>
</linearGradient>
<linearGradient id="paint1_linear_1_26" x1="20.6711" y1="1.91577" x2="20.6711" y2="23.8372" gradientUnits="userSpaceOnUse">
<stop offset="0.317999" stop-color="#F5F5F5"/>
<stop offset="1" stop-color="#F5F5F5" stop-opacity="0"/>
</linearGradient>
<linearGradient id="paint2_linear_1_26" x1="30.0661" y1="11.7281" x2="30.0661" y2="33.6496" gradientUnits="userSpaceOnUse">
<stop offset="0.317999" stop-color="#F5F5F5"/>
<stop offset="1" stop-color="#F5F5F5" stop-opacity="0"/>
</linearGradient>
</defs>
</svg>
